#!OML:ASF H:\MichaelJackson\Top Level 1\Subject 1\Session 1\male.ASF
:FULLY-SPECIFIED
:DEGREES
310
root 6.30221 15.705 -25.1187 29.5689 78.3072 34.1955
lowerback 10.2224 -4.55313 -7.95245
upperback 3.70369 -6.71617 -3.18251
thorax -1.29122 -3.30731 1.83016
lowerneck -1.78639 -13.2965 -3.57745
upperneck 3.99047 -18.0122 7.4804
head 2.7017 -8.87299 2.34683
rclavicle 1.00386e-014 -2.14687e-014
rhumerus -55.5332 -1.52941 -93.9702
rradius 62.8769
rwrist 13.3506
rhand -14.59 -6.55062
rfingers 7.12502
rthumb 11.5602 323.788
lclavicle 1.00386e-014 -2.14687e-014
lhumerus -32.1868 -30.0797 92.3642
lradius 49.7429
lwrist 15.5236
lhand -1.73965 10.2988
lfingers 7.12502
lthumb 23.9231 38.8285
rfemur -48.885 -10.909 29.8385
rtibia 42.8383
rfoot 1.34301 -0.377354
rtoes -30.8612
lfemur -25.1996 15.6845 -21.3071
ltibia 53.6588
lfoot -25.0661 -22.3015
ltoes 10.5756
311
root 6.32265 15.6847 -25.0669 28.571 78.397 33.0844
lowerback 10.3546 -4.32696 -8.08422
upperback 3.69337 -6.44124 -3.0369
thorax -1.36564 -3.16974 2.03956
lowerneck -1.76362 -13.4701 -3.62123
upperneck 3.69231 -18.2433 7.78756
head 2.6515 -8.98882 2.44734
rclavicle 6.72886e-014 -3.18055e-015
rhumerus -55.6439 -1.24871 -93.3806
rradius 63.5412
rwrist 13.3254
rhand -14.9623 -7.39086
rfingers 7.12502
rthumb 11.2011 322.928
lclavicle 6.72886e-014 -3.18055e-015
lhumerus -31.5332 -30.1501 92.1027
lradius 49.4237
lwrist 14.8394
lhand -1.49934 10.27
lfingers 7.12502
lthumb 24.1535 38.7694
rfemur -49.4206 -11.577 30.8164
rtibia 43.0454
rfoot -0.164841 -0.37146
rtoes -33.2277
lfemur -25.4149 16.0315 -20.8936
ltibia 54.1337
lfoot -25.3762 -22.0977
ltoes 10.2061
312
root 6.33855 15.6638 -25.017 27.5249 78.4754 31.9645
lowerback 10.5178 -4.11306 -8.16601
upperback 3.72454 -6.17694 -2.89845
thorax -1.42138 -3.03817 2.21531
lowerneck -1.72212 -13.6312 -3.65976
upperneck 3.29648 -18.4504 8.09548
head 2.5639 -9.09599 2.5536
rclavicle 4.27387e-014 6.36111e-015
rhumerus -55.5639 -0.913785 -92.7427
rradius 63.852
rwrist 13.7978
rhand -15.6006 -7.79731
rfingers 7.12502
rthumb 10.5855 322.489
lclavicle 4.27387e-014 6.36111e-015
lhumerus -30.9384 -30.2005 91.8122
lradius 49.2586
lwrist 14.2602
lhand -1.46856 10.1607
lfingers 7.12502
lthumb 24.183 38.6561
rfemur -49.9415 -11.9035 31.3535
rtibia 43.8263
rfoot -0.959735 -0.160389
rtoes -34.3878
lfemur -25.6021 16.4396 -20.5117
ltibia 54.6124
lfoot -25.6958 -21.7273
ltoes 9.66295
313
root 6.35117 15.6423 -24.9684 26.6838 78.586 31.1125
lowerback 10.7232 -3.92716 -8.22421
upperback 3.79884 -5.94716 -2.77114
thorax -1.45707 -2.92452 2.37038
lowerneck -1.65817 -13.783 -3.69838
upperneck 2.83128 -18.6379 8.38675
head 2.44672 -9.19675 2.66026
rclavicle 6.65929e-015 3.18055e-015
rhumerus -55.2954 -0.497909 -92.0914
rradius 63.8589
rwrist 14.4675
rhand -16.4763 -8.04255
rfingers 7.12502
rthumb 9.74061 322.203
lclavicle 6.65929e-015 3.18055e-015
lhumerus -30.409 -30.2381 91.5125
lradius 49.2107
lwrist 13.813
lhand -1.6606 9.94796
lfingers 7.12502
lthumb 23.9989 38.4678
rfemur -50.3984 -11.9671 31.398
rtibia 45.0716
rfoot -1.03303 0.317078
rtoes -34.4397
lfemur -25.7328 16.8865 -20.1907
ltibia 55.0802
lfoot -26.0456 -21.1854
ltoes 8.84624
314
root 6.36124 15.6212 -24.9203 25.928 78.7722 30.3913
lowerback 10.9553 -3.77401 -8.22552
upperback 3.9052 -5.7543 -2.63237
thorax -1.47596 -2.83012 2.50958
lowerneck -1.56954 -13.9317 -3.74792
upperneck 2.32958 -18.8156 8.64879
head 2.31106 -9.29555 2.76361
rclavicle 5.36719e-015 2.22639e-014
rhumerus -54.8541 0.00726163 -91.4416
rradius 63.6276
rwrist 15.0235
rhand -17.4844 -8.31195
rfingers 7.12502
rthumb 8.76796 321.89
lclavicle 5.36719e-015 2.22639e-014
lhumerus -29.9415 -30.2618 91.234
lradius 49.2318
lwrist 13.5078
lhand -2.0477 9.61747
lfingers 7.12502
lthumb 23.6276 38.1857
rfemur -50.7703 -11.8088 31.0026
rtibia 46.6801
rfoot -0.480931 1.04825
rtoes -33.2202
lfemur -25.8183 17.3384 -19.875
ltibia 55.5244
lfoot -26.4178 -20.5392
ltoes 7.79345
315
root 6.3701 15.5999 -24.8719 25.4334 79.0769 29.9713
lowerback 11.2032 -3.66312 -8.18894
upperback 4.03268 -5.61229 -2.47797
thorax -1.4791 -2.76181 2.64872
lowerneck -1.45183 -14.088 -3.81901
upperneck 1.82759 -19.0005 8.87278
head 2.16959 -9.40002 2.86066
rclavicle -4.25399e-014 -1.19271e-015
rhumerus -54.2651 0.584628 -90.7968
rradius 63.2184
rwrist 15.2196
rhand -18.5854 -8.85206
rfingers 7.12502
rthumb 7.70535 321.308
lclavicle -4.25399e-014 -1.19271e-015
lhumerus -29.5238 -30.272 91.0062
lradius 49.2579
lwrist 13.3253
lhand -2.61151 9.16098
lfingers 7.12502
lthumb 23.0868 37.7979
rfemur -51.0561 -11.5656 30.2195
rtibia 48.5715
rfoot 0.442002 1.92311
rtoes -31.395
lfemur -25.863 17.7201 -19.5613
ltibia 55.9331
lfoot -26.8171 -19.8726
ltoes 6.5824
